<?xml version="1.0" encoding="UTF-8" standalone="no"?>
<!DOCTYPE svg PUBLIC "-//W3C//DTD SVG 1.1//EN"
 "http://www.w3.org/Graphics/SVG/1.1/DTD/svg11.dtd">
<!-- Generated by graphviz version 9.0.0 (20230911.1827)
 -->
<!-- Pages: 1 -->
<svg width="1640pt" height="343pt"
 viewBox="0.00 0.00 1639.99 343.43" xmlns="http://www.w3.org/2000/svg" xmlns:xlink="http://www.w3.org/1999/xlink">
<g id="graph0" class="graph" transform="scale(1 1) rotate(0) translate(4 339.43)">
<polygon fill="white" stroke="none" points="-4,4 -4,-339.43 1635.99,-339.43 1635.99,4 -4,4"/>
<!-- Vegetables Aisle -->
<g id="node1" class="node">
<title>Vegetables Aisle</title>
<ellipse fill="#b2dfee" stroke="#b2dfee" cx="1001.67" cy="-290.18" rx="375.12" ry="45.25"/>
<text text-anchor="start" x="951.42" y="-305.88" font-family="Times New Roman,serif" font-weight="bold" font-size="14.00">Vegetables Aisle</text>
<text text-anchor="start" x="744.42" y="-291.88" font-family="Times New Roman,serif" font-size="14.00">You are standing in the vegetables aisle. There is a big sale on carrots and cucumbers today.</text>
<text text-anchor="start" x="999.79" y="-277.88" font-family="Times New Roman,serif" font-size="14.00"> </text>
<text text-anchor="start" x="933.04" y="-263.88" font-family="Times New Roman,serif" font-size="14.00">Characters: Temp player</text>
</g>
<!-- Dairy Aisle -->
<g id="node2" class="node">
<title>Dairy Aisle</title>
<ellipse fill="#b2dfee" stroke="#b2dfee" cx="1001.67" cy="-157.82" rx="361.86" ry="35.36"/>
<text text-anchor="start" x="967.54" y="-166.52" font-family="Times New Roman,serif" font-weight="bold" font-size="14.00">Dairy Aisle</text>
<text text-anchor="start" x="753.79" y="-152.52" font-family="Times New Roman,serif" font-size="14.00">You are standing in the dairy aisle. There are several different flavors of yogurt available. </text>
<text text-anchor="start" x="999.79" y="-138.52" font-family="Times New Roman,serif" font-size="14.00"> </text>
</g>
<!-- Vegetables Aisle&#45;&gt;Dairy Aisle -->
<g id="edge1" class="edge">
<title>Vegetables Aisle&#45;&gt;Dairy Aisle</title>
<path fill="none" stroke="black" d="M981.51,-244.5C978.72,-233.67 977.47,-222.07 979.67,-211.17 980.13,-208.87 980.7,-206.54 981.35,-204.21"/>
<polygon fill="black" stroke="black" points="984.63,-205.44 984.42,-194.85 977.98,-203.26 984.63,-205.44"/>
<text text-anchor="middle" x="991.67" y="-213.62" font-family="Times New Roman,serif" font-size="14.00">East</text>
</g>
<!-- Dairy Aisle&#45;&gt;Vegetables Aisle -->
<g id="edge2" class="edge">
<title>Dairy Aisle&#45;&gt;Vegetables Aisle</title>
<path fill="none" stroke="black" d="M1003.18,-193.45C1003.38,-199.36 1003.56,-205.44 1003.67,-211.17 1003.8,-218.28 1003.8,-225.76 1003.71,-233.15"/>
<polygon fill="black" stroke="black" points="1000.21,-233.05 1003.52,-243.11 1007.21,-233.18 1000.21,-233.05"/>
<text text-anchor="middle" x="1019.29" y="-213.62" font-family="Times New Roman,serif" font-size="14.00">West</text>
</g>
<!-- Customer Service -->
<g id="node3" class="node">
<title>Customer Service</title>
<ellipse fill="#b2dfee" stroke="#b2dfee" cx="384.67" cy="-35.36" rx="384.67" ry="35.36"/>
<text text-anchor="start" x="330.29" y="-44.06" font-family="Times New Roman,serif" font-weight="bold" font-size="14.00">Customer Service</text>
<text text-anchor="start" x="120.67" y="-30.06" font-family="Times New Roman,serif" font-size="14.00">You are standing in front of customer service. There is a representative available to talk to you.</text>
<text text-anchor="start" x="382.79" y="-16.06" font-family="Times New Roman,serif" font-size="14.00"> </text>
</g>
<!-- Dairy Aisle&#45;&gt;Customer Service -->
<g id="edge3" class="edge">
<title>Dairy Aisle&#45;&gt;Customer Service</title>
<path fill="none" stroke="black" d="M841.97,-125.64C754.65,-108.59 646.42,-87.46 557.17,-70.03"/>
<polygon fill="black" stroke="black" points="558.08,-66.65 547.59,-68.16 556.73,-73.52 558.08,-66.65"/>
<text text-anchor="middle" x="746.79" y="-91.16" font-family="Times New Roman,serif" font-size="14.00">North</text>
</g>
<!-- Pharmacy -->
<g id="node4" class="node">
<title>Pharmacy</title>
<ellipse fill="#b2dfee" stroke="#b2dfee" cx="1209.67" cy="-35.36" rx="422.32" ry="35.36"/>
<text text-anchor="start" x="1178.54" y="-44.06" font-family="Times New Roman,serif" font-weight="bold" font-size="14.00">Pharmacy</text>
<text text-anchor="start" x="919.04" y="-30.06" font-family="Times New Roman,serif" font-size="14.00">You walk by the pharmacy. Your annoying neighbor, who spots you, just happens to be the pharmacist.</text>
<text text-anchor="start" x="1207.79" y="-16.06" font-family="Times New Roman,serif" font-size="14.00"> </text>
</g>
<!-- Dairy Aisle&#45;&gt;Pharmacy -->
<g id="edge4" class="edge">
<title>Dairy Aisle&#45;&gt;Pharmacy</title>
<path fill="none" stroke="black" d="M1056.35,-122.43C1074.18,-111.45 1094.15,-99.38 1112.67,-88.71 1119.81,-84.59 1127.31,-80.38 1134.82,-76.21"/>
<polygon fill="black" stroke="black" points="1136.29,-79.4 1143.37,-71.51 1132.92,-73.27 1136.29,-79.4"/>
<text text-anchor="middle" x="1129.17" y="-91.16" font-family="Times New Roman,serif" font-size="14.00">South</text>
</g>
<!-- Customer Service&#45;&gt;Dairy Aisle -->
<g id="edge5" class="edge">
<title>Customer Service&#45;&gt;Dairy Aisle</title>
<path fill="none" stroke="black" d="M622.74,-63.51C670.62,-70.51 720.42,-78.9 766.67,-88.71 806.74,-97.22 849.96,-108.98 888.28,-120.33"/>
<polygon fill="black" stroke="black" points="886.92,-123.58 897.51,-123.09 888.93,-116.87 886.92,-123.58"/>
<text text-anchor="middle" x="842.17" y="-91.16" font-family="Times New Roman,serif" font-size="14.00">South</text>
</g>
<!-- Pharmacy&#45;&gt;Dairy Aisle -->
<g id="edge6" class="edge">
<title>Pharmacy&#45;&gt;Dairy Aisle</title>
<path fill="none" stroke="black" d="M1182.74,-71.11C1172.2,-82.94 1159.35,-95.44 1145.67,-104.46 1137.76,-109.67 1129.28,-114.44 1120.52,-118.79"/>
<polygon fill="black" stroke="black" points="1119.04,-115.62 1111.5,-123.07 1122.04,-121.95 1119.04,-115.62"/>
<text text-anchor="middle" x="1180.79" y="-91.16" font-family="Times New Roman,serif" font-size="14.00">North</text>
</g>
</g>
</svg>
